<svg width="109" height="42" viewBox="0 0 109 42" fill="none" xmlns="http://www.w3.org/2000/svg">
<g clip-path="url(#clip0_1_270)">
<path d="M48.8336 19.8521C48.8336 19.8521 56.9002 6.36324 57.1215 5.89586C57.3437 5.42853 57.9257 5.45132 57.9257 5.45132H72.6372C75.5388 5.45132 75.5131 2.81629 75.5131 2.81629C75.5131 -0.0159245 72.6722 0.0667057 72.6722 0.0667057H55.9765C54.3133 0.0667057 53.7592 0.909866 53.7592 0.909866C53.7592 0.909866 46.9748 12.2188 46.7207 12.8299C46.4622 13.4531 46.2033 12.8482 46.2033 12.8482L39.0819 1.00159C37.6964 -0.703178 35.7005 0.286585 35.7005 0.286585C33.3725 1.85401 34.6199 3.9436 34.6199 3.9436L44.2384 19.8734C44.9858 21.0807 46.4799 21.0664 46.4799 21.0664C47.7749 21.0664 48.4658 20.4862 48.8336 19.8521Z" fill="#EAEAEA" fill-opacity="0.7"/>
<path d="M68.2327 7.93608C68.2327 7.93608 62.6287 7.93608 59.7735 7.93608C56.918 7.93608 56.918 10.3832 56.918 10.3832C56.918 10.3832 56.8905 13.1055 59.5792 13.1055C59.5792 13.1055 65.1833 13.1055 68.0379 13.1055C70.8935 13.1055 70.8935 10.6582 70.8935 10.6582C70.8935 10.6582 71.0874 7.93608 68.2327 7.93608Z" fill="#EAEAEA" fill-opacity="0.7"/>
<path d="M63.7049 15.5922C63.7049 15.5922 58.1009 15.5922 55.2466 15.5922C52.3915 15.5922 52.3915 18.0393 52.3915 18.0393C52.3915 18.0393 52.3636 20.7616 55.0523 20.7616C55.0523 20.7616 60.6564 20.7616 63.5115 20.7616C66.3666 20.7616 66.3666 18.3143 66.3666 18.3143C66.3666 18.3143 66.5605 15.5922 63.7049 15.5922Z" fill="#EAEAEA" fill-opacity="0.7"/>
<path d="M0 28.8921H1.75651L2.947 37.605H2.98625L4.19609 28.8921H5.9526L3.5521 42H2.40051L0 28.8921Z" fill="#EAEAEA" fill-opacity="0.7"/>
<path d="M11.8015 37.4118L10.8844 31.9905H10.8452L9.92781 37.4118H11.8015ZM10.0061 28.8152H11.7429L14.1825 41.8262H12.5626L12.0943 38.9607H9.67421L9.16678 41.8262H7.54688L10.0061 28.8152Z" fill="#EAEAEA" fill-opacity="0.7"/>
<path d="M18.6149 34.488C19.5321 34.488 20.0201 33.8103 20.0201 32.5326C20.0201 31.1192 19.5518 30.4608 18.5369 30.4416V34.488H18.6149ZM16.8584 28.8926H18.2636C20.9568 28.8926 21.6985 30.8483 21.6985 32.4745C21.6985 33.7136 21.2497 34.6238 20.352 35.2433C21.1326 35.8048 21.6791 37.2376 22.1279 39.1735L22.733 41.8262H20.9765L20.4691 39.5995C19.8836 37.0633 19.4932 35.9403 18.5369 36.037V41.8262H16.8584V28.8926Z" fill="#EAEAEA" fill-opacity="0.7"/>
<path d="M27.4312 34.372C28.6023 34.372 29.344 33.5975 29.344 32.3584C29.344 31.1384 28.6414 30.4416 27.4312 30.4416H27.2752V34.372H27.4312ZM27.5679 40.2773C28.8756 40.2773 29.6368 39.4834 29.6368 38.1474C29.6368 37.0633 29.0902 35.9209 27.5679 35.9209H27.2752V40.2773H27.5679ZM25.5967 28.8926H27.5874C29.6755 28.8926 31.0225 30.4416 31.0225 32.0874C31.0225 33.2296 30.4174 34.217 29.3244 34.8754C30.6517 35.495 31.3152 36.5599 31.3152 38.0894C31.3152 39.9286 30.2027 41.8262 27.1777 41.8262H25.5967V28.8926Z" fill="#EAEAEA" fill-opacity="0.7"/>
<path d="M34.1475 28.8926H38.7929V30.4416H35.8257V34.3139H38.5388V35.8629H35.8257V40.2773H38.9485V41.8262H34.1475V28.8926Z" fill="#EAEAEA" fill-opacity="0.7"/>
<path d="M43.9733 34.488C44.8905 34.488 45.3782 33.8103 45.3782 32.5326C45.3782 31.1192 44.9104 30.4608 43.8953 30.4416V34.488H43.9733ZM42.2168 28.8926H43.6224C46.3152 28.8926 47.057 30.8483 47.057 32.4745C47.057 33.7136 46.6082 34.6238 45.7102 35.2433C46.4913 35.8048 47.0375 37.2376 47.4863 39.1735L48.0913 41.8262H46.3347L45.8275 39.5995C45.2424 37.0633 44.8516 35.9403 43.8953 36.037V41.8262H42.2168V28.8926Z" fill="#EAEAEA" fill-opacity="0.7"/>
<path d="M56.2885 41.2255C55.4489 41.7676 54.766 42 53.9857 42C51.3895 42 49.6913 39.6378 49.6913 35.3783C49.6913 31.3124 51.2722 28.7179 53.7901 28.7179C54.5708 28.7179 55.2732 28.9697 56.2885 29.6473V31.4286C55.2343 30.4992 54.6297 30.1702 53.868 30.1702C52.1308 30.1702 51.3696 31.9707 51.3696 35.3783C51.3696 38.6309 52.1503 40.4511 54.0242 40.4511C54.2194 40.4511 54.3557 40.4316 54.6098 40.393V36.4238H53.4582V34.875H56.2885V41.2255Z" fill="#EAEAEA" fill-opacity="0.7"/>
<path d="M63.791 28.8926H68.4364V30.4416H65.4697V34.3139H68.1828V35.8629H65.4697V40.2773H68.5922V41.8262H63.791V28.8926Z" fill="#EAEAEA" fill-opacity="0.7"/>
<path d="M72.082 28.8926H73.4483L76.3366 36.8697H76.3756V28.8926H77.9175V41.8262H76.5513L73.6629 33.7717H73.624V41.8262H72.082V28.8926Z" fill="#EAEAEA" fill-opacity="0.7"/>
<path d="M81.8154 28.8926H86.4608V30.4416H83.4937V34.3139H86.2063V35.8629H83.4937V40.2773H86.6166V41.8262H81.8154V28.8926Z" fill="#EAEAEA" fill-opacity="0.7"/>
<path d="M91.6414 34.488C92.5584 34.488 93.0462 33.8103 93.0462 32.5326C93.0462 31.1192 92.5783 30.4608 91.5635 30.4416V34.488H91.6414ZM89.8848 28.8926H91.2904C93.9835 28.8926 94.7249 30.8483 94.7249 32.4745C94.7249 33.7136 94.2765 34.6238 93.3781 35.2433C94.1588 35.8048 94.7054 37.2376 95.1542 39.1735L95.7592 41.8262H94.003L93.4954 39.5995C92.9103 37.0633 92.5195 35.9403 91.5635 36.037V41.8262H89.8848V28.8926Z" fill="#EAEAEA" fill-opacity="0.7"/>
<path d="M104.178 41.2255C103.338 41.7676 102.655 42 101.875 42C99.2786 42 97.5808 39.6378 97.5808 35.3783C97.5808 31.3124 99.1618 28.7179 101.679 28.7179C102.46 28.7179 103.163 28.9697 104.178 29.6473V31.4286C103.124 30.4992 102.519 30.1702 101.758 30.1702C100.02 30.1702 99.2587 31.9707 99.2587 35.3783C99.2587 38.6309 100.04 40.4511 101.914 40.4511C102.108 40.4511 102.246 40.4316 102.499 40.393V36.4238H101.347V34.875H104.178V41.2255Z" fill="#EAEAEA" fill-opacity="0.7"/>
<path d="M107.319 28.8926H108.998V41.8262H107.319V28.8926Z" fill="#EAEAEA" fill-opacity="0.7"/>
</g>
<defs>
<clipPath id="clip0_1_270">
<rect width="109" height="42" fill="white"/>
</clipPath>
</defs>
</svg>
