<svg width="65" height="35" viewBox="0 0 65 35" fill="none" xmlns="http://www.w3.org/2000/svg">
<g clip-path="url(#clip0_1_289)">
<path d="M4.75429 3.91161V15.1173C4.75429 15.1173 4.77693 15.1739 4.81089 15.1739H7.06334C7.06334 15.1739 7.11994 15.1512 7.11994 15.1173V0.968704C7.11994 0.968704 7.0973 0.912109 7.06334 0.912109H4.76561C4.76561 0.912109 4.74298 0.912109 4.73166 0.923428L0.0230068 4.4436C0.0230068 4.4436 -0.0109498 4.50019 0.011688 4.52283L1.26808 6.37912C1.26808 6.37912 1.32468 6.41308 1.34731 6.39044L4.70902 3.87765C4.70902 3.87765 4.75429 3.87765 4.75429 3.90029V3.91161Z" fill="#EAEAEA" fill-opacity="0.7"/>
<path d="M17.8729 9.57104L21.8119 15.1512C21.8119 15.1512 21.8345 15.1739 21.8571 15.1739H27.1996C27.1996 15.1739 27.2789 15.1173 27.2449 15.0833L22.1175 7.47705C22.1175 7.47705 22.1061 7.43178 22.1175 7.40914L26.9619 1.00266C26.9619 1.00266 26.9619 0.912109 26.9167 0.912109H21.8345C21.8345 0.912109 21.8005 0.912109 21.7892 0.934747L17.8729 6.09615C17.8729 6.09615 17.8163 6.09615 17.8163 6.07351V0.968704C17.8163 0.968704 17.7937 0.912109 17.7597 0.912109H13.0963C13.0963 0.912109 13.0397 0.934747 13.0397 0.968704V15.106C13.0397 15.106 13.0624 15.1626 13.0963 15.1626H17.7484C17.7484 15.1626 17.805 15.1399 17.805 15.106V9.58236C17.805 9.58236 17.8389 9.53709 17.8616 9.55972L17.8729 9.57104Z" fill="#EAEAEA" fill-opacity="0.7"/>
<path d="M26.0449 19.9609L20.3628 34.1095C20.3628 34.1095 20.3741 34.1887 20.4194 34.1887H25.3884C25.3884 34.1887 25.4336 34.1774 25.445 34.1434L26.1354 32.1287C26.1354 32.1287 26.1694 32.0834 26.192 32.0834H30.7422C30.7422 32.0834 30.7875 32.0947 30.7988 32.1174L31.5345 34.1321C31.5345 34.1321 31.5685 34.1661 31.5911 34.1661H36.6054C36.6054 34.1661 36.6733 34.1208 36.662 34.0868L31.0025 19.9383C31.0025 19.9383 30.9686 19.9043 30.9459 19.9043H26.1015C26.1015 19.9043 26.0562 19.9156 26.0449 19.9383V19.9609ZM27.3352 28.3821L28.4897 24.9751C28.4897 24.9751 28.535 24.9525 28.5463 24.9751L29.6782 28.3821C29.6782 28.3821 29.6782 28.4161 29.6556 28.4161H27.3692C27.3692 28.4161 27.3352 28.3934 27.3465 28.3821H27.3352Z" fill="#EAEAEA" fill-opacity="0.7"/>
<path d="M50.6972 7.30739L53.2666 15.14C53.2666 15.14 53.3006 15.1853 53.3232 15.1853H57.3301C57.3301 15.1853 57.3753 15.1627 57.3867 15.14L59.741 7.36399C59.741 7.36399 59.7976 7.34135 59.7976 7.36399L59.6618 15.1061C59.6618 15.1061 59.6844 15.1627 59.7183 15.1627H64.1101C64.1101 15.1627 64.1667 15.14 64.1667 15.1061V0.968826C64.1667 0.968826 64.144 0.912231 64.1101 0.912231H57.681C57.681 0.912231 57.6357 0.934869 57.6244 0.957507L55.3606 8.49587C55.3606 8.49587 55.3153 8.51851 55.304 8.49587L53.0063 0.957507C53.0063 0.957507 52.9723 0.912231 52.9497 0.912231H46.4074C46.4074 0.912231 46.3508 0.934869 46.3508 0.968826V15.1174C46.3508 15.1174 46.3734 15.174 46.4074 15.174H50.7991C50.7991 15.174 50.8557 15.1514 50.8557 15.1174L50.6406 7.31871C50.6406 7.31871 50.6859 7.27344 50.6972 7.31871V7.30739Z" fill="#EAEAEA" fill-opacity="0.7"/>
<path d="M4.34645 26.3245L6.91583 34.1571C6.91583 34.1571 6.94978 34.2024 6.97242 34.2024H10.9793C10.9793 34.2024 11.0246 34.1797 11.0359 34.1571L13.3902 26.381C13.3902 26.381 13.4468 26.3584 13.4468 26.381L13.311 34.1232C13.311 34.1232 13.3336 34.1797 13.3676 34.1797H17.7593C17.7593 34.1797 17.8159 34.1571 17.8159 34.1232V19.9746C17.8159 19.9746 17.7933 19.918 17.7593 19.918H11.3302C11.3302 19.918 11.2849 19.9406 11.2736 19.9632L9.00982 27.5016C9.00982 27.5016 8.96454 27.5243 8.95322 27.5016L6.65549 19.9632C6.65549 19.9632 6.62154 19.918 6.5989 19.918H0.0565943C0.0565943 19.918 0 19.9406 0 19.9746V34.1232C0 34.1232 0.0226377 34.1797 0.0565943 34.1797H4.44831C4.44831 34.1797 4.50491 34.1571 4.50491 34.1232L4.28985 26.3245C4.28985 26.3245 4.33513 26.2792 4.34645 26.3245Z" fill="#EAEAEA" fill-opacity="0.7"/>
<path d="M55.3265 26.7087C53.3683 26.7087 51.7837 25.124 51.7837 23.1659C51.7837 21.2077 53.3683 19.623 55.3265 19.623C57.2847 19.623 58.8693 21.2077 58.8693 23.1659C58.8693 25.124 57.2847 26.7087 55.3265 26.7087ZM55.3265 22C54.6926 22 54.1607 22.5207 54.1607 23.1659C54.1607 23.811 54.6813 24.3317 55.3265 24.3317C55.9717 24.3317 56.4923 23.811 56.4923 23.1659C56.4923 22.5207 55.9717 22 55.3265 22Z" fill="#EAEAEA" fill-opacity="0.7"/>
<path d="M48.4901 26.074C48.0486 25.6892 47.5166 25.3949 46.9167 25.1911C46.3282 24.9874 45.6717 24.8855 44.9699 24.8855C44.7209 24.8855 44.4379 24.8968 44.121 24.9308C43.8946 24.9534 43.6909 24.9761 43.4984 25.0213C43.4758 25.0213 43.4645 25.0213 43.4645 24.9874L43.589 22.3275C43.589 22.3275 43.6003 22.3048 43.623 22.3048H49.2371C49.2371 22.3048 49.2937 22.2822 49.2937 22.2482V19.9845C49.2937 19.9845 49.2711 19.9279 49.2371 19.9279H41.3026C41.3026 19.9279 41.246 19.9505 41.246 19.9845L40.9177 27.7605C40.9177 27.7605 40.963 27.8397 40.997 27.8171C41.1328 27.7492 41.4045 27.6247 41.744 27.5115C42.0157 27.4209 42.2873 27.3417 42.559 27.2625C42.8306 27.1946 43.1249 27.138 43.4079 27.104C44.1097 27.0135 44.7209 27.0361 45.3208 27.1719C45.6717 27.2512 45.9886 27.3983 46.2716 27.6021C46.5545 27.8058 46.7809 28.0774 46.9507 28.417C47.1205 28.7566 47.211 29.1867 47.211 29.696C47.211 30.1035 47.1431 30.4657 47.0186 30.7827C46.8941 31.0996 46.713 31.3712 46.4866 31.575C46.2603 31.79 45.9999 31.9485 45.7056 32.0617C45.4113 32.1749 45.0831 32.2315 44.7435 32.2315C44.1436 32.2315 43.6116 32.073 43.1815 31.7561C42.7514 31.4505 42.4345 31.0543 42.2194 30.4204C42.2194 30.3865 42.1741 30.3752 42.1515 30.3865L39.8764 31.2241C39.8764 31.2241 39.8311 31.2694 39.8425 31.3033C40.2273 32.3107 40.8612 33.1143 41.6648 33.6576C42.4798 34.2123 43.4984 34.4952 44.6869 34.4952C45.3887 34.4952 46.0678 34.3821 46.7017 34.1557C47.3355 33.9293 47.8902 33.5897 48.3542 33.1596C48.8183 32.7295 49.2032 32.1975 49.4748 31.575C49.7465 30.9524 49.8936 30.2393 49.8936 29.447C49.8936 28.7226 49.7691 28.0774 49.5201 27.5115C49.2711 26.9456 48.9202 26.4702 48.4788 26.0853L48.4901 26.074Z" fill="#EAEAEA" fill-opacity="0.7"/>
<path d="M33.1303 6.63953C33.2661 6.26601 33.4586 5.94908 33.6962 5.68875C33.9339 5.42841 34.2282 5.22467 34.5678 5.07753C34.9074 4.93038 35.2696 4.86247 35.6657 4.86247C36.0619 4.86247 36.4241 4.93038 36.7523 5.07753C37.0919 5.22467 37.3749 5.42841 37.6239 5.68875C37.8729 5.94908 38.0653 6.26601 38.2012 6.63953C38.337 7.01306 38.4049 7.43185 38.4049 7.88461C38.4049 8.33736 38.337 8.76748 38.2012 9.15232C38.0653 9.53716 37.8729 9.86541 37.6239 10.1484C37.3749 10.4314 37.0806 10.6464 36.7523 10.7936C36.4128 10.9407 36.0506 11.0199 35.6657 11.0199C35.2809 11.0199 34.9074 10.9407 34.5678 10.7936C34.2282 10.6351 33.9339 10.4314 33.6962 10.1484C33.4586 9.86541 33.2661 9.53716 33.1303 9.15232C32.9945 8.76748 32.9266 8.34868 32.9266 7.88461C32.9266 7.42054 32.9945 7.02437 33.1303 6.63953ZM30.1648 13.329C30.8552 13.9855 31.6702 14.4948 32.6096 14.8457C33.5491 15.1966 34.5678 15.3777 35.6657 15.3777C36.7637 15.3777 37.7824 15.1966 38.7218 14.8457C39.6613 14.4835 40.4763 13.9855 41.178 13.329C41.8685 12.6725 42.4118 11.8802 42.8079 10.952C43.2041 10.0239 43.3965 9.00518 43.3965 7.87329C43.3965 6.7414 43.2041 5.73402 42.8079 4.82851C42.4118 3.923 41.8685 3.15332 41.178 2.51946C40.4876 1.88561 39.6613 1.3989 38.7218 1.04801C37.7824 0.697127 36.7637 0.527344 35.6657 0.527344C34.5678 0.527344 33.5491 0.697127 32.6096 1.04801C31.6702 1.38758 30.8552 1.88561 30.1648 2.51946C29.4743 3.15332 28.9423 3.923 28.5462 4.82851C28.15 5.73402 27.9576 6.75272 27.9576 7.87329C27.9576 8.99386 28.15 10.0239 28.5462 10.952C28.9423 11.8802 29.4743 12.6725 30.1648 13.329Z" fill="#EAEAEA" fill-opacity="0.7"/>
</g>
<defs>
<clipPath id="clip0_1_289">
<rect width="64.1667" height="35" fill="white"/>
</clipPath>
</defs>
</svg>
