<svg width="82" height="42" viewBox="0 0 82 42" fill="none" xmlns="http://www.w3.org/2000/svg">
<g clip-path="url(#clip0_1_268)">
<path fill-rule="evenodd" clip-rule="evenodd" d="M1.83946 13.7406H0C0.320243 17.6897 3.28 19.6902 7.25368 19.6902C10.7221 19.6902 14.1616 17.9793 14.1616 14.4259C14.1616 11.477 11.8944 10.1607 8.48146 9.37151L6.21427 8.81888C3.76092 8.26624 2.40016 7.50251 2.40016 5.60698C2.40016 3.5534 4.64076 2.15856 7.17389 2.15856C9.94749 2.15856 11.6817 3.63298 12.0019 6.00156H13.8414C13.4679 2.52661 10.9082 0.552612 7.17389 0.552612C3.62795 0.552612 0.587297 2.63272 0.587297 5.73851C0.587297 8.4243 2.40016 9.79261 5.70676 10.5818L7.78778 11.057C10.455 11.687 12.2945 12.5038 12.2945 14.5828C12.2945 16.874 9.8943 18.1108 7.25368 18.1108C4.26732 18.1108 2.1597 16.5845 1.84057 13.7406H1.83946ZM21.7743 19.3741H23.8554L31.0558 0.947191H29.1621L22.868 17.294L16.574 0.947191H14.5738L21.7743 19.3741ZM45.6452 19.3741H32.9241V0.947191H45.459V2.55314H34.7647V9.0554H44.7654V10.6613H34.7647V17.7682H45.6463L45.6452 19.3741ZM51.158 14.1098H60.3598L62.5206 19.3741H64.5196L56.8393 0.947191H54.7849L47.1057 19.3752H48.9994L51.1602 14.1109L51.158 14.1098ZM55.7722 2.84272L59.7193 12.5038H51.7985L55.7722 2.84272ZM0 35.4977H1.83946C2.16081 38.3416 4.26622 39.8679 7.25368 39.8679C9.8943 39.8679 12.2956 38.63 12.2956 36.3399C12.2956 34.2609 10.455 33.4441 7.78778 32.813L5.70787 32.3389C2.40016 31.5497 0.587297 30.1803 0.587297 27.4956C0.587297 24.3898 3.62684 22.3097 7.17389 22.3097C10.9082 22.3097 13.4679 24.2837 13.8414 27.7587H12.0019C11.6806 25.3901 9.94749 23.9157 7.17389 23.9157C4.64076 23.9157 2.40016 25.3105 2.40016 27.3641C2.40016 29.2596 3.76092 30.0222 6.21427 30.5749L8.48146 31.1275C11.8944 31.9178 14.1616 33.2341 14.1616 36.1819C14.1616 39.7364 10.7209 41.4473 7.25368 41.4473C3.28 41.4473 0.321351 39.4468 0 35.4977ZM38.7051 22.7043H36.8379V41.1312H48.3069V39.5253H38.7051V22.7043ZM62.7178 35.8669H53.5172L51.3564 41.1312H49.4626L57.144 22.7043H59.1974L66.8788 41.1312H64.8786L62.7178 35.8669ZM62.0784 34.2609L58.1302 24.5998L54.1566 34.2598L62.0784 34.2609ZM69.8385 41.1312V33.2607H74.7463C75.173 33.2607 75.2261 33.3126 75.4123 33.6287L79.8392 41.1312H82L77.8391 34.1813C77.6946 33.9217 77.5465 33.6642 77.3947 33.4088L77.1997 33.0772V33.0496C79.6796 32.655 81.6 30.944 81.6 27.9432C81.6 24.9425 79.6264 22.7043 75.5996 22.7043H67.9979V41.1312H69.8385ZM75.4655 31.6812H69.8385V24.3102H75.4389C78.2934 24.3102 79.7328 25.8112 79.7328 27.9952C79.7328 30.1538 78.3189 31.6812 75.4655 31.6812ZM24.9901 22.9939C26.7686 22.9939 28.5072 23.5133 29.9854 24.4893C31.4608 25.4604 32.6136 26.8469 33.2975 28.4727C33.9781 30.0927 34.1564 31.879 33.8095 33.6011C33.4604 35.3261 32.6035 36.9081 31.3484 38.1448C30.0865 39.3885 28.485 40.2335 26.7442 40.5742C25 40.9168 23.1933 40.7412 21.5483 40.0691C19.909 39.4005 18.5048 38.2629 17.5125 36.7997C16.5255 35.3438 15.9976 33.6267 15.9966 31.8691C15.999 30.7015 16.2333 29.546 16.686 28.4692C17.1386 27.3924 17.8007 26.4158 18.6339 25.5957C20.3273 23.9285 22.6107 22.9934 24.9901 22.9928V22.9939ZM24.9901 22.2976C23.0741 22.2965 21.2002 22.8572 19.6013 23.9101C18.0103 24.9575 16.7672 26.4529 16.0299 28.2063C15.2961 29.9535 15.1039 31.8799 15.4781 33.737C15.8544 35.5975 16.7784 37.3038 18.132 38.6378C19.493 39.9788 21.2201 40.8899 23.0974 41.2572C24.9785 41.6267 26.927 41.4372 28.7011 40.7123C30.4686 39.9911 31.9827 38.7644 33.0527 37.1866C34.1174 35.6165 34.687 33.7647 34.6882 31.8691C34.6855 30.61 34.4328 29.3638 33.9446 28.2026C33.4563 27.0414 32.7423 25.9882 31.8437 25.1038C30.0178 23.306 27.5557 22.2986 24.9901 22.2976ZM29.0069 25.9339C27.6135 25.0164 25.9464 24.6042 24.2847 24.7662C22.6229 24.9281 21.0674 25.6545 19.8784 26.8236C19.2083 27.4832 18.6758 28.2687 18.3118 29.1347C17.9478 30.0007 17.7593 30.9301 17.7574 31.8691C17.758 33.2827 18.1825 34.6638 18.9764 35.8348C19.7744 37.0116 20.9037 37.9265 22.222 38.4642C23.5447 39.0043 24.9973 39.1453 26.3996 38.8699C27.7997 38.5962 29.0878 37.9169 30.1029 36.9169C31.1124 35.922 31.8014 34.6494 32.0819 33.2618C32.3613 31.8767 32.2181 30.44 31.6708 29.1369C31.1207 27.8295 30.1935 26.7147 29.0069 25.9339ZM20.5798 25.3547C22.1092 24.3477 23.9391 23.8952 25.7631 24.0731C27.587 24.2509 29.2944 25.0483 30.5993 26.3318C31.3346 27.0557 31.9188 27.9178 32.3182 28.8682C32.7176 29.8187 32.9243 30.8386 32.9263 31.8691C32.9263 33.4187 32.4609 34.9329 31.5888 36.2217C30.7128 37.5129 29.4732 38.5166 28.0263 39.1064C26.5746 39.6996 24.9802 39.8549 23.4409 39.5529C21.9042 39.2523 20.4904 38.5065 19.3764 37.4087C18.2684 36.3166 17.5122 34.9197 17.2045 33.3966C16.8985 31.8768 17.056 30.3003 17.6566 28.8706C18.2605 27.4361 19.2779 26.2116 20.5798 25.3547Z" fill="#EAEAEA" fill-opacity="0.7"/>
</g>
<defs>
<clipPath id="clip0_1_268">
<rect width="82" height="42" fill="white"/>
</clipPath>
</defs>
</svg>
