<svg width="159" height="35" viewBox="0 0 159 35" fill="none" xmlns="http://www.w3.org/2000/svg">
<g clip-path="url(#clip0_1_298)">
<path d="M29.5011 1.57812H9.07422V12.0696H29.5011V1.57812Z" fill="#EAEAEA" fill-opacity="0.7"/>
<path d="M29.482 12.0689L19.2686 29.7539L28.3571 34.9997L38.5705 17.3146L29.482 12.0689Z" fill="#EAEAEA" fill-opacity="0.7"/>
<path d="M19.3013 29.7554L9.08789 12.0703L-0.000668068 17.3161L10.2128 35.0011L19.3013 29.7554Z" fill="#EAEAEA" fill-opacity="0.7"/>
<path d="M51.1717 15.1256C50.3264 15.1256 49.5837 15.036 48.9434 14.8568C48.316 14.6775 47.7845 14.4151 47.3492 14.0695C46.9265 13.711 46.6128 13.2757 46.4079 12.7636C46.203 12.2516 46.1134 11.6562 46.139 10.9778L47.7333 10.6321C47.6821 11.2978 47.7909 11.8547 48.0599 12.3028C48.3288 12.7509 48.7385 13.0901 49.2892 13.3206C49.8399 13.5382 50.4865 13.6469 51.2293 13.6469C51.9464 13.6469 52.5547 13.5573 53.0541 13.3781C53.5535 13.1989 53.9249 12.9493 54.1682 12.6292C54.4243 12.3092 54.5523 11.9443 54.5523 11.5347C54.5523 11.0737 54.4051 10.709 54.1105 10.4401C53.816 10.1713 53.4191 9.96643 52.9196 9.82556C52.433 9.672 51.8888 9.53112 51.2869 9.40311C50.6978 9.2751 50.1088 9.12792 49.5197 8.9615C48.9307 8.79507 48.3992 8.58379 47.9254 8.32776C47.4644 8.05892 47.0866 7.71327 46.7921 7.2908C46.5103 6.85553 46.3695 6.30505 46.3695 5.63934C46.3695 4.88402 46.5552 4.23112 46.9265 3.68064C47.3107 3.13016 47.8486 2.70769 48.54 2.41324C49.2316 2.10599 50.0448 1.95237 50.9796 1.95237C51.9015 1.95237 52.7211 2.0996 53.4382 2.39404C54.1682 2.68848 54.7445 3.12375 55.167 3.69984C55.5896 4.26313 55.8137 4.96084 55.8393 5.79296L54.1874 6.19623C54.1874 5.73535 54.1041 5.33209 53.9376 4.98644C53.784 4.62799 53.5663 4.33994 53.2846 4.12231C53.0029 3.89187 52.6635 3.71905 52.2665 3.60383C51.8696 3.47581 51.4342 3.4118 50.9604 3.4118C50.3841 3.4118 49.8783 3.50141 49.4429 3.68064C49.0075 3.85987 48.6681 4.1031 48.4249 4.41035C48.1815 4.7176 48.0599 5.08246 48.0599 5.50492C48.0599 6.0042 48.2327 6.40106 48.5785 6.69551C48.9371 6.97715 49.3981 7.20118 49.9615 7.36761C50.5249 7.53404 51.1269 7.68766 51.7671 7.82848C52.3177 7.9437 52.8556 8.08452 53.3806 8.25095C53.9185 8.40457 54.4051 8.6158 54.8405 8.88467C55.2759 9.1407 55.6216 9.47993 55.8777 9.90238C56.1338 10.3248 56.2619 10.8625 56.2619 11.5154C56.2619 12.2452 56.0699 12.8789 55.6856 13.4166C55.3142 13.9542 54.7508 14.3767 53.9953 14.6839C53.2398 14.9783 52.2986 15.1256 51.1717 15.1256ZM62.2889 15.1256C61.4181 15.1256 60.6754 14.9848 60.0607 14.7032C59.4588 14.4215 58.9658 14.0438 58.5817 13.5702C58.2103 13.0965 57.9349 12.5524 57.7557 11.9379C57.5892 11.3234 57.506 10.6833 57.506 10.0176C57.506 9.28787 57.602 8.603 57.7941 7.9629C57.9861 7.32281 58.2743 6.75952 58.6585 6.27304C59.0554 5.77377 59.5421 5.3897 60.1183 5.12086C60.7074 4.83921 61.3925 4.6984 62.1736 4.6984C62.9291 4.6984 63.5951 4.83282 64.1713 5.10166C64.7476 5.3577 65.215 5.72255 65.5735 6.19623C65.9449 6.6699 66.1818 7.23319 66.2843 7.88609L64.6131 8.34696C64.5875 7.98851 64.4787 7.64285 64.2866 7.31C64.1073 6.97715 63.8384 6.70831 63.4798 6.50347C63.1213 6.28584 62.6794 6.17703 62.1545 6.17703C61.655 6.17703 61.226 6.27304 60.8675 6.46507C60.5218 6.6571 60.2271 6.92594 59.9839 7.27159C59.7534 7.61725 59.5741 8.02051 59.4461 8.48138C59.3308 8.94225 59.2731 9.44152 59.2731 9.97921C59.2731 10.7217 59.3756 11.3683 59.5805 11.9187C59.7982 12.4692 60.1311 12.898 60.5793 13.2053C61.0276 13.5125 61.5973 13.6662 62.2889 13.6662C62.8267 13.6662 63.2813 13.5766 63.6527 13.3973C64.0241 13.2053 64.3186 12.9428 64.5363 12.61C64.754 12.2644 64.8949 11.8611 64.9589 11.4002L66.5724 11.7651C66.4828 12.3155 66.3163 12.802 66.073 13.2245C65.8296 13.6469 65.5223 13.999 65.151 14.2807C64.7796 14.5495 64.3506 14.7543 63.864 14.8951C63.3902 15.0488 62.8652 15.1256 62.2889 15.1256ZM70.3094 15.1256C69.7715 15.1256 69.2849 15.0232 68.8495 14.8184C68.4141 14.6007 68.0684 14.2871 67.8123 13.8774C67.5562 13.455 67.4281 12.9237 67.4281 12.2836C67.4281 11.8099 67.5114 11.3938 67.6778 11.0353C67.8571 10.6769 68.126 10.3696 68.4846 10.1136C68.8559 9.85758 69.3297 9.64636 69.906 9.47993C70.4822 9.31351 71.1866 9.17272 72.0189 9.05748C72.4928 8.99343 72.8769 8.92947 73.1715 8.86542C73.4788 8.80146 73.7029 8.69902 73.8437 8.55819C73.9846 8.40457 74.055 8.18053 74.055 7.88609C74.055 7.39961 73.8886 6.98996 73.5556 6.6571C73.2227 6.32425 72.6976 6.15782 71.9805 6.15782C71.6091 6.15782 71.2314 6.22183 70.8472 6.34985C70.4631 6.47787 70.1237 6.69551 69.8291 7.00276C69.5475 7.2972 69.3681 7.71327 69.2913 8.25095L67.6778 7.71327C67.7802 7.25239 67.9467 6.83633 68.1772 6.46507C68.4205 6.09382 68.7279 5.78016 69.0992 5.52412C69.4706 5.25529 69.8996 5.05045 70.3862 4.90963C70.8856 4.7688 71.4363 4.6984 72.0382 4.6984C72.8705 4.6984 73.562 4.83921 74.1127 5.12086C74.6761 5.4025 75.0923 5.83777 75.3613 6.42667C75.6429 7.00276 75.7838 7.74527 75.7838 8.65421V10.8625C75.7838 11.2594 75.7902 11.6946 75.803 12.1684C75.8286 12.6292 75.8607 13.0965 75.8991 13.5702C75.9374 14.0311 75.9759 14.4663 76.0143 14.876H74.4008C74.3624 14.4663 74.324 14.0566 74.2856 13.6469C74.2599 13.2374 74.2408 12.8277 74.2279 12.418H73.9782C73.7861 12.8916 73.53 13.3333 73.2099 13.743C72.8897 14.1527 72.4863 14.4855 71.9998 14.7416C71.5259 14.9976 70.9625 15.1256 70.3094 15.1256ZM70.828 13.7046C71.1097 13.7046 71.3914 13.6598 71.6732 13.5702C71.9677 13.4805 72.2558 13.3333 72.5376 13.1285C72.8321 12.9237 73.1074 12.6613 73.3636 12.3412C73.6325 12.0211 73.8694 11.6371 74.0743 11.189V9.26871L74.5737 9.3647C74.3688 9.56953 74.0934 9.72318 73.7477 9.82556C73.4148 9.92802 73.0434 10.0112 72.6336 10.0752C72.2238 10.1392 71.814 10.2097 71.4042 10.2864C70.9944 10.3505 70.6167 10.4528 70.271 10.5937C69.938 10.7217 69.6691 10.9073 69.4642 11.1506C69.2593 11.3938 69.1568 11.7267 69.1568 12.1491C69.1568 12.6613 69.3105 13.0517 69.6178 13.3206C69.9252 13.5766 70.3285 13.7046 70.828 13.7046ZM77.9475 14.876V8.71182V4.94804H79.5226L79.3497 8.09732H79.6763C79.8555 7.3164 80.0924 6.6763 80.387 6.17703C80.6943 5.67774 81.0785 5.30649 81.5395 5.06325C82.0005 4.82002 82.5383 4.6984 83.153 4.6984C84.2543 4.6984 85.0866 5.09526 85.6501 5.88898C86.2264 6.6699 86.5145 7.84129 86.5145 9.40311V14.876H84.7473V9.55676C84.7473 8.43017 84.5681 7.59805 84.2095 7.06036C83.8637 6.52268 83.3515 6.25384 82.6728 6.25384C82.0581 6.25384 81.5331 6.44586 81.0977 6.82993C80.6751 7.21398 80.3422 7.71966 80.0988 8.34696C79.8555 8.97427 79.7211 9.65275 79.6954 10.3825V14.876H77.9475ZM92.1556 15.1256C91.3101 15.1256 90.5863 14.9016 89.985 14.4535C89.3828 14.0054 88.9216 13.3909 88.6012 12.61C88.294 11.8291 88.1409 10.933 88.1409 9.92163C88.1409 8.91022 88.294 8.01411 88.6012 7.23319C88.9093 6.45227 89.3574 5.83777 89.9465 5.3897C90.5355 4.94163 91.2585 4.7176 92.1171 4.7176C92.8208 4.7176 93.3976 4.86483 93.8458 5.15927C94.2939 5.45371 94.6527 5.83777 94.9214 6.31145C95.2033 6.77232 95.4081 7.278 95.5359 7.82848H95.8816C95.8177 7.45722 95.7599 7.07317 95.7092 6.6763C95.6575 6.26664 95.6129 5.86978 95.5744 5.48572C95.5359 5.08886 95.5166 4.7368 95.5166 4.42956V1.43389H97.2838V9.97921V14.876H95.7092L95.8046 12.1875H95.4974C95.3442 12.7636 95.1263 13.2757 94.8444 13.7238C94.5626 14.1591 94.2037 14.5047 93.7687 14.7607C93.3337 15.004 92.7955 15.1256 92.1556 15.1256ZM92.5583 13.5894C93.0195 13.5894 93.4361 13.4805 93.8072 13.2629C94.1784 13.0453 94.4926 12.7636 94.7481 12.418C95.0046 12.0595 95.1963 11.6755 95.3249 11.2658C95.4659 10.8561 95.5359 10.4593 95.5359 10.0752V9.84481C95.5359 9.57592 95.4974 9.28787 95.4203 8.98066C95.3442 8.66061 95.2287 8.34056 95.0746 8.02051C94.9337 7.70046 94.742 7.40602 94.4987 7.13717C94.2685 6.85553 93.9928 6.6379 93.6725 6.48428C93.3521 6.31785 92.9941 6.23464 92.5968 6.23464C92.0208 6.23464 91.5342 6.40106 91.1368 6.73391C90.7526 7.05396 90.4585 7.49563 90.2537 8.05892C90.0612 8.62221 89.9658 9.25593 89.9658 9.96005C89.9658 10.6897 90.0682 11.3299 90.273 11.8803C90.4778 12.418 90.7719 12.8405 91.1561 13.1477C91.5535 13.4421 92.0209 13.5894 92.5583 13.5894ZM99.5778 14.876V4.94804H101.326V14.876H99.5778ZM100.462 3.21976C100.051 3.21976 99.7441 3.13655 99.5393 2.97013C99.3345 2.8037 99.2321 2.55406 99.2321 2.22122C99.2321 1.88837 99.3345 1.63873 99.5393 1.4723C99.7441 1.30587 100.045 1.22266 100.443 1.22266C100.852 1.22266 101.159 1.30587 101.364 1.4723C101.569 1.63873 101.671 1.88837 101.671 2.22122C101.671 2.54126 101.569 2.7909 101.364 2.97013C101.159 3.13655 100.858 3.21976 100.462 3.21976ZM103.593 14.876V8.71182V4.94804H105.167L104.995 8.09732H105.321C105.501 7.3164 105.737 6.6763 106.032 6.17703C106.339 5.67774 106.723 5.30649 107.185 5.06325C107.645 4.82002 108.183 4.6984 108.798 4.6984C109.899 4.6984 110.731 5.09526 111.295 5.88898C111.872 6.6699 112.16 7.84129 112.16 9.40311V14.876H110.392V9.55676C110.392 8.43017 110.213 7.59805 109.854 7.06036C109.508 6.52268 108.996 6.25384 108.318 6.25384C107.703 6.25384 107.178 6.44586 106.743 6.82993C106.32 7.21398 105.987 7.71966 105.744 8.34696C105.501 8.97427 105.366 9.65275 105.34 10.3825V14.876H103.593ZM116.552 15.1256C116.014 15.1256 115.528 15.0232 115.093 14.8184C114.658 14.6007 114.312 14.2871 114.055 13.8774C113.799 13.455 113.671 12.9237 113.671 12.2836C113.671 11.8099 113.754 11.3938 113.921 11.0353C114.1 10.6769 114.369 10.3696 114.728 10.1136C115.099 9.85758 115.573 9.64636 116.149 9.47993C116.726 9.31351 117.429 9.17272 118.262 9.05748C118.736 8.99343 119.12 8.92947 119.415 8.86542C119.722 8.80146 119.946 8.69902 120.087 8.55819C120.228 8.40457 120.299 8.18053 120.299 7.88609C120.299 7.39961 120.131 6.98996 119.799 6.6571C119.466 6.32425 118.941 6.15782 118.223 6.15782C117.852 6.15782 117.474 6.22183 117.09 6.34985C116.707 6.47787 116.367 6.69551 116.072 7.00276C115.79 7.2972 115.612 7.71327 115.535 8.25095L113.921 7.71327C114.023 7.25239 114.19 6.83633 114.42 6.46507C114.664 6.09382 114.971 5.78016 115.342 5.52412C115.714 5.25529 116.143 5.05045 116.63 4.90963C117.128 4.7688 117.68 4.6984 118.281 4.6984C119.113 4.6984 119.805 4.83921 120.355 5.12086C120.919 5.4025 121.336 5.83777 121.604 6.42667C121.886 7.00276 122.027 7.74527 122.027 8.65421V10.8625C122.027 11.2594 122.033 11.6946 122.046 12.1684C122.072 12.6292 122.103 13.0965 122.142 13.5702C122.18 14.0311 122.219 14.4663 122.257 14.876H120.644C120.606 14.4663 120.567 14.0566 120.529 13.6469C120.503 13.2374 120.484 12.8277 120.471 12.418H120.222C120.029 12.8916 119.773 13.3333 119.453 13.743C119.133 14.1527 118.729 14.4855 118.243 14.7416C117.769 14.9976 117.205 15.1256 116.552 15.1256ZM117.072 13.7046C117.352 13.7046 117.634 13.6598 117.916 13.5702C118.211 13.4805 118.499 13.3333 118.781 13.1285C119.075 12.9237 119.351 12.6613 119.606 12.3412C119.876 12.0211 120.112 11.6371 120.317 11.189V9.26871L120.817 9.3647C120.612 9.56953 120.336 9.72318 119.99 9.82556C119.658 9.92802 119.287 10.0112 118.876 10.0752C118.467 10.1392 118.057 10.2097 117.647 10.2864C117.238 10.3505 116.86 10.4528 116.514 10.5937C116.181 10.7217 115.912 10.9073 115.707 11.1506C115.502 11.3938 115.4 11.7267 115.4 12.1491C115.4 12.6613 115.554 13.0517 115.861 13.3206C116.168 13.5766 116.572 13.7046 117.072 13.7046ZM126.367 14.876L122.813 4.96724H124.753L127.462 13.3973H127.73L130.419 4.96724H132.321L128.787 14.876H126.367ZM133.458 14.876V4.94804H135.207V14.876H133.458ZM134.342 3.21976C133.932 3.21976 133.625 3.13655 133.42 2.97013C133.215 2.8037 133.112 2.55406 133.112 2.22122C133.112 1.88837 133.215 1.63873 133.42 1.4723C133.625 1.30587 133.925 1.22266 134.323 1.22266C134.732 1.22266 135.04 1.30587 135.244 1.4723C135.45 1.63873 135.552 1.88837 135.552 2.22122C135.552 2.54126 135.45 2.7909 135.244 2.97013C135.04 3.13655 134.739 3.21976 134.342 3.21976ZM139.759 15.1256C139.221 15.1256 138.734 15.0232 138.299 14.8184C137.863 14.6007 137.517 14.2871 137.262 13.8774C137.005 13.455 136.878 12.9237 136.878 12.2836C136.878 11.8099 136.961 11.3938 137.127 11.0353C137.307 10.6769 137.575 10.3696 137.934 10.1136C138.305 9.85758 138.78 9.64636 139.355 9.47993C139.931 9.31351 140.636 9.17272 141.468 9.05748C141.942 8.99343 142.326 8.92947 142.621 8.86542C142.928 8.80146 143.152 8.69902 143.293 8.55819C143.434 8.40457 143.504 8.18053 143.504 7.88609C143.504 7.39961 143.338 6.98996 143.005 6.6571C142.672 6.32425 142.147 6.15782 141.43 6.15782C141.059 6.15782 140.681 6.22183 140.296 6.34985C139.912 6.47787 139.573 6.69551 139.278 7.00276C138.997 7.2972 138.817 7.71327 138.741 8.25095L137.127 7.71327C137.229 7.25239 137.396 6.83633 137.627 6.46507C137.87 6.09382 138.177 5.78016 138.549 5.52412C138.92 5.25529 139.349 5.05045 139.836 4.90963C140.335 4.7688 140.885 4.6984 141.488 4.6984C142.32 4.6984 143.011 4.83921 143.562 5.12086C144.126 5.4025 144.541 5.83777 144.811 6.42667C145.093 7.00276 145.233 7.74527 145.233 8.65421V10.8625C145.233 11.2594 145.24 11.6946 145.252 12.1684C145.278 12.6292 145.31 13.0965 145.348 13.5702C145.387 14.0311 145.425 14.4663 145.464 14.876H143.85C143.811 14.4663 143.774 14.0566 143.735 13.6469C143.709 13.2374 143.69 12.8277 143.677 12.418H143.428C143.235 12.8916 142.979 13.3333 142.66 13.743C142.339 14.1527 141.936 14.4855 141.449 14.7416C140.976 14.9976 140.412 15.1256 139.759 15.1256ZM140.277 13.7046C140.559 13.7046 140.841 13.6598 141.123 13.5702C141.417 13.4805 141.706 13.3333 141.987 13.1285C142.281 12.9237 142.557 12.6613 142.813 12.3412C143.082 12.0211 143.319 11.6371 143.523 11.189V9.26871L144.023 9.3647C143.818 9.56953 143.543 9.72318 143.197 9.82556C142.864 9.92802 142.492 10.0112 142.083 10.0752C141.673 10.1392 141.264 10.2097 140.854 10.2864C140.444 10.3505 140.066 10.4528 139.72 10.5937C139.388 10.7217 139.118 10.9073 138.913 11.1506C138.709 11.3938 138.606 11.7267 138.606 12.1491C138.606 12.6613 138.76 13.0517 139.068 13.3206C139.375 13.5766 139.778 13.7046 140.277 13.7046ZM147.397 14.876V8.71182V4.94804H148.972L148.799 8.09732H149.126C149.305 7.3164 149.542 6.6763 149.837 6.17703C150.144 5.67774 150.528 5.30649 150.988 5.06325C151.45 4.82002 151.988 4.6984 152.602 4.6984C153.704 4.6984 154.536 5.09526 155.1 5.88898C155.675 6.6699 155.964 7.84129 155.964 9.40311V14.876H154.197V9.55676C154.197 8.43017 154.018 7.59805 153.659 7.06036C153.313 6.52268 152.801 6.25384 152.122 6.25384C151.508 6.25384 150.982 6.44586 150.547 6.82993C150.125 7.21398 149.791 7.71966 149.549 8.34696C149.305 8.97427 149.171 9.65275 149.145 10.3825V14.876H147.397ZM47.6757 32.376V30.8589H51.4214C52.2922 30.8589 53.0093 30.6605 53.5728 30.2636C54.1362 29.854 54.5523 29.2907 54.8213 28.5737C55.103 27.8569 55.2439 27.0247 55.2439 26.0774C55.2439 25.2452 55.1543 24.522 54.9749 23.9075C54.8084 23.2929 54.546 22.7937 54.1874 22.4096C53.8289 22.0127 53.3742 21.7183 52.8235 21.5263C52.2858 21.3215 51.6454 21.219 50.9027 21.219H47.6757V19.702H50.8643C52.2986 19.702 53.4703 19.9517 54.3795 20.4509C55.2887 20.9502 55.961 21.6671 56.3964 22.6017C56.8318 23.5362 57.0494 24.65 57.0494 25.943C57.0494 26.8007 56.9534 27.5752 56.7613 28.2665C56.5821 28.9579 56.3196 29.5595 55.9738 30.0716C55.6408 30.5837 55.2439 31.0125 54.7829 31.3582C54.3219 31.6911 53.8096 31.9471 53.2462 32.1263C52.6827 32.2928 52.0937 32.376 51.479 32.376H47.6757ZM46.7345 32.376V19.702H48.5016V32.376H46.7345ZM61.2671 32.6256C60.7293 32.6256 60.2426 32.5232 59.8073 32.3184C59.3718 32.1007 59.0261 31.7871 58.77 31.3774C58.5138 30.955 58.3858 30.4237 58.3858 29.7836C58.3858 29.3099 58.469 28.8938 58.6355 28.5353C58.8148 28.1769 59.0837 27.8696 59.4423 27.6136C59.8137 27.3576 60.2874 27.1464 60.8637 26.9799C61.44 26.8135 62.1443 26.6727 62.9767 26.5575C63.4504 26.4934 63.8347 26.4295 64.1292 26.3654C64.4365 26.3015 64.6606 26.199 64.8015 26.0582C64.9423 25.9046 65.0128 25.6806 65.0128 25.3861C65.0128 24.8996 64.8463 24.4899 64.5133 24.1571C64.1804 23.8242 63.6553 23.6578 62.9382 23.6578C62.5669 23.6578 62.1891 23.7219 61.805 23.8499C61.4207 23.9779 61.0814 24.1955 60.7869 24.5027C60.5051 24.7972 60.3259 25.2132 60.249 25.7509L58.6355 25.2132C58.738 24.7524 58.9045 24.3363 59.1349 23.965C59.3782 23.5938 59.6856 23.2802 60.057 23.0241C60.4283 22.7553 60.8573 22.5504 61.344 22.4096C61.8434 22.2688 62.394 22.1984 62.9958 22.1984C63.8282 22.1984 64.5197 22.3392 65.0704 22.6209C65.6338 22.9025 66.05 23.3377 66.3189 23.9266C66.6007 24.5027 66.7416 25.2452 66.7416 26.1542V28.3625C66.7416 28.7594 66.748 29.1946 66.7607 29.6684C66.7864 30.1292 66.8183 30.5965 66.8568 31.0702C66.8952 31.5311 66.9336 31.9663 66.972 32.376H65.3585C65.3201 31.9663 65.2816 31.5566 65.2432 31.1469C65.2177 30.7374 65.1984 30.3277 65.1856 29.918H64.9359C64.7438 30.3916 64.4877 30.8333 64.1676 31.243C63.8475 31.6527 63.444 31.9855 62.9574 32.2416C62.4836 32.4976 61.9201 32.6256 61.2671 32.6256ZM61.7857 31.2046C62.0674 31.2046 62.3492 31.1598 62.6309 31.0702C62.9255 30.9805 63.2136 30.8333 63.4953 30.6285C63.7898 30.4237 64.0651 30.1613 64.3212 29.8412C64.5902 29.5211 64.827 29.1371 65.0319 28.689V26.7687L65.5314 26.8647C65.3265 27.0695 65.0512 27.2232 64.7054 27.3256C64.3724 27.428 64.0012 27.5112 63.5914 27.5752C63.1816 27.6392 62.7718 27.7097 62.362 27.7864C61.9522 27.8505 61.5744 27.9528 61.2287 28.0937C60.8957 28.2217 60.6268 28.4073 60.4219 28.6506C60.217 28.8938 60.1146 29.2267 60.1146 29.6491C60.1146 30.1613 60.2683 30.5517 60.5756 30.8206C60.8829 31.0766 61.2863 31.2046 61.7857 31.2046ZM71.9977 32.568C71.0757 32.568 70.3907 32.3184 69.9425 31.8191C69.4942 31.3198 69.2702 30.5581 69.2702 29.534V23.9075H67.7719L67.7911 22.448H68.7323C69.0524 22.448 69.283 22.3904 69.4238 22.2752C69.5775 22.16 69.6671 21.9679 69.6928 21.6991L69.8848 20.2013H70.9605V22.448H73.8226V23.9266H70.9605V29.4956C70.9605 30.0076 71.0757 30.3789 71.3063 30.6093C71.5496 30.827 71.8953 30.9357 72.3435 30.9357C72.5869 30.9357 72.8366 30.9038 73.0927 30.8397C73.3616 30.7757 73.6241 30.6477 73.8802 30.4557V32.2032C73.5089 32.3439 73.1631 32.44 72.843 32.4912C72.5356 32.5424 72.2539 32.568 71.9977 32.568ZM77.5509 32.6256C77.013 32.6256 76.5264 32.5232 76.091 32.3184C75.6556 32.1007 75.3099 31.7871 75.0537 31.3774C74.7976 30.955 74.6695 30.4237 74.6695 29.7836C74.6695 29.3099 74.7528 28.8938 74.9193 28.5353C75.0986 28.1769 75.3675 27.8696 75.7261 27.6136C76.0974 27.3576 76.5712 27.1464 77.1475 26.9799C77.7237 26.8135 78.4281 26.6727 79.2604 26.5575C79.7342 26.4934 80.1184 26.4295 80.413 26.3654C80.7203 26.3015 80.9443 26.199 81.0852 26.0582C81.2261 25.9046 81.2965 25.6806 81.2965 25.3861C81.2965 24.8996 81.1301 24.4899 80.7971 24.1571C80.4642 23.8242 79.9391 23.6578 79.222 23.6578C78.8506 23.6578 78.4729 23.7219 78.0887 23.8499C77.7045 23.9779 77.3652 24.1955 77.0706 24.5027C76.7889 24.7972 76.6096 25.2132 76.5328 25.7509L74.9193 25.2132C75.0217 24.7524 75.1882 24.3363 75.4187 23.965C75.662 23.5938 75.9694 23.2802 76.3407 23.0241C76.712 22.7553 77.1411 22.5504 77.6276 22.4096C78.1271 22.2688 78.6778 22.1984 79.2796 22.1984C80.112 22.1984 80.8035 22.3392 81.3541 22.6209C81.9176 22.9025 82.3338 23.3377 82.6027 23.9266C82.8844 24.5027 83.0252 25.2452 83.0252 26.1542V28.3625C83.0252 28.7594 83.0317 29.1946 83.0445 29.6684C83.0701 30.1292 83.1021 30.5965 83.1405 31.0702C83.1789 31.5311 83.2174 31.9663 83.2558 32.376H81.6423C81.6038 31.9663 81.5654 31.5566 81.527 31.1469C81.5014 30.7374 81.4822 30.3277 81.4694 29.918H81.2197C81.0276 30.3916 80.7715 30.8333 80.4513 31.243C80.1312 31.6527 79.7278 31.9855 79.2412 32.2416C78.7674 32.4976 78.2039 32.6256 77.5509 32.6256ZM78.0695 31.2046C78.3512 31.2046 78.633 31.1598 78.9146 31.0702C79.2092 30.9805 79.4974 30.8333 79.779 30.6285C80.0735 30.4237 80.3489 30.1613 80.605 29.8412C80.874 29.5211 81.1108 29.1371 81.3157 28.689V26.7687L81.8151 26.8647C81.6102 27.0695 81.335 27.2232 80.9891 27.3256C80.6562 27.428 80.2848 27.5112 79.8751 27.5752C79.4653 27.6392 79.0555 27.7097 78.6457 27.7864C78.2359 27.8505 77.8582 27.9528 77.5125 28.0937C77.1795 28.2217 76.9105 28.4073 76.7056 28.6506C76.5007 28.8938 76.3983 29.2267 76.3983 29.6491C76.3983 30.1613 76.552 30.5517 76.8593 30.8206C77.1666 31.0766 77.57 31.2046 78.0695 31.2046ZM94.7726 32.6256C93.8633 32.6256 93.044 32.4848 92.3141 32.2032C91.5972 31.9215 90.9889 31.5054 90.4892 30.955C89.9894 30.4045 89.6051 29.7323 89.3364 28.9386C89.0809 28.1321 88.9522 27.2168 88.9522 26.1926C88.9522 25.1556 89.087 24.2275 89.3557 23.4082C89.6244 22.5761 90.0086 21.8656 90.5084 21.2767C91.0082 20.6877 91.6095 20.2397 92.3141 19.9324C93.0186 19.6124 93.8055 19.4524 94.6764 19.4524C95.3424 19.4524 95.9569 19.5484 96.5205 19.7404C97.0842 19.9196 97.5708 20.1884 97.9805 20.5469C98.4032 20.8926 98.7297 21.3151 98.9599 21.8144C99.1909 22.3136 99.3126 22.8705 99.3249 23.485L97.654 23.9075C97.6671 23.2545 97.5323 22.7168 97.2505 22.2944C96.9687 21.8592 96.5976 21.5327 96.1363 21.3151C95.675 21.0974 95.1761 20.9886 94.6379 20.9886C94.139 20.9886 93.6523 21.091 93.1779 21.2958C92.7176 21.4879 92.3079 21.7951 91.9491 22.2176C91.5902 22.6272 91.3023 23.1585 91.0843 23.8115C90.8795 24.4515 90.7771 25.2261 90.7771 26.135C90.7771 27.3 90.9434 28.2409 91.2769 28.9579C91.6226 29.6748 92.1022 30.2061 92.7176 30.5517C93.332 30.8845 94.0427 31.051 94.8497 31.051C95.6304 31.051 96.258 30.9102 96.7323 30.6285C97.2059 30.3341 97.5577 29.9308 97.7888 29.4187C98.019 28.8938 98.1538 28.2922 98.1914 27.6136L99.7669 27.9017C99.7537 28.5418 99.6513 29.1498 99.4596 29.7259C99.2671 30.302 98.973 30.8077 98.5756 31.243C98.1791 31.6782 97.6671 32.0175 97.0396 32.2607C96.412 32.504 95.6567 32.6256 94.7726 32.6256ZM105.568 32.6256C104.787 32.6256 104.096 32.5104 103.494 32.28C102.905 32.0367 102.405 31.6911 101.995 31.243C101.586 30.7949 101.278 30.2636 101.074 29.6491C100.869 29.0347 100.766 28.3434 100.766 27.5752C100.766 26.7943 100.869 26.0774 101.074 25.4245C101.278 24.7716 101.58 24.2019 101.976 23.7154C102.373 23.229 102.86 22.8577 103.436 22.6017C104.013 22.3328 104.672 22.1984 105.415 22.1984C106.068 22.1984 106.663 22.3072 107.201 22.5249C107.739 22.7425 108.193 23.0817 108.565 23.5426C108.949 23.9907 109.237 24.5604 109.429 25.2516C109.621 25.9302 109.698 26.7303 109.66 27.652L101.861 27.7097V26.5191L108.603 26.4615L108.007 27.268C108.071 26.4615 107.995 25.7958 107.777 25.2709C107.559 24.746 107.246 24.3492 106.836 24.0803C106.439 23.8115 105.965 23.677 105.415 23.677C104.826 23.677 104.307 23.8306 103.859 24.1379C103.411 24.4451 103.065 24.8868 102.821 25.4629C102.59 26.039 102.476 26.7367 102.476 27.556C102.476 28.7338 102.738 29.6363 103.263 30.2636C103.788 30.8781 104.563 31.1854 105.587 31.1854C105.997 31.1854 106.35 31.1406 106.644 31.051C106.951 30.9486 107.207 30.8141 107.412 30.6477C107.63 30.4685 107.803 30.2636 107.931 30.0332C108.071 29.8028 108.181 29.5531 108.258 29.2843L109.794 29.6491C109.679 30.11 109.5 30.526 109.256 30.8973C109.025 31.2558 108.731 31.563 108.372 31.8191C108.027 32.0751 107.623 32.2736 107.163 32.4144C106.701 32.5552 106.17 32.6256 105.568 32.6256ZM111.378 32.376V26.2119V22.448H112.953L112.78 25.5973H113.107C113.286 24.8164 113.523 24.1763 113.817 23.677C114.125 23.1777 114.509 22.8065 114.97 22.5633C115.431 22.32 115.969 22.1984 116.583 22.1984C117.685 22.1984 118.517 22.5952 119.08 23.389C119.657 24.1699 119.945 25.3413 119.945 26.9031V32.376H118.178V27.0568C118.178 25.9302 117.998 25.0981 117.64 24.5604C117.294 24.0227 116.782 23.7538 116.103 23.7538C115.488 23.7538 114.964 23.9459 114.528 24.3299C114.105 24.7139 113.773 25.2197 113.529 25.847C113.286 26.4743 113.151 27.1527 113.126 27.8825V32.376H111.378ZM125.126 32.568C124.204 32.568 123.519 32.3184 123.07 31.8191C122.622 31.3198 122.398 30.5581 122.398 29.534V23.9075H120.9L120.919 22.448H121.861C122.18 22.448 122.411 22.3904 122.552 22.2752C122.706 22.16 122.796 21.9679 122.821 21.6991L123.013 20.2013H124.088V22.448H126.951V23.9266H124.088V29.4956C124.088 30.0076 124.204 30.3789 124.434 30.6093C124.677 30.827 125.023 30.9357 125.471 30.9357C125.715 30.9357 125.965 30.9038 126.221 30.8397C126.49 30.7757 126.753 30.6477 127.008 30.4557V32.2032C126.637 32.3439 126.291 32.44 125.971 32.4912C125.664 32.5424 125.382 32.568 125.126 32.568ZM132.526 32.6256C131.745 32.6256 131.054 32.5104 130.452 32.28C129.862 32.0367 129.364 31.6911 128.953 31.243C128.543 30.7949 128.236 30.2636 128.031 29.6491C127.827 29.0347 127.724 28.3434 127.724 27.5752C127.724 26.7943 127.827 26.0774 128.031 25.4245C128.236 24.7716 128.537 24.2019 128.934 23.7154C129.331 23.229 129.818 22.8577 130.394 22.6017C130.971 22.3328 131.63 22.1984 132.373 22.1984C133.026 22.1984 133.621 22.3072 134.159 22.5249C134.697 22.7425 135.152 23.0817 135.523 23.5426C135.907 23.9907 136.195 24.5604 136.388 25.2516C136.579 25.9302 136.656 26.7303 136.618 27.652L128.819 27.7097V26.5191L135.561 26.4615L134.966 27.268C135.03 26.4615 134.953 25.7958 134.735 25.2709C134.517 24.746 134.204 24.3492 133.794 24.0803C133.397 23.8115 132.923 23.677 132.373 23.677C131.784 23.677 131.265 23.8306 130.816 24.1379C130.368 24.4451 130.023 24.8868 129.779 25.4629C129.549 26.039 129.434 26.7367 129.434 27.556C129.434 28.7338 129.696 29.6363 130.221 30.2636C130.746 30.8781 131.521 31.1854 132.545 31.1854C132.955 31.1854 133.307 31.1406 133.602 31.051C133.909 30.9486 134.165 30.8141 134.37 30.6477C134.588 30.4685 134.76 30.2636 134.889 30.0332C135.03 29.8028 135.139 29.5531 135.216 29.2843L136.752 29.6491C136.637 30.11 136.458 30.526 136.214 30.8973C135.984 31.2558 135.689 31.563 135.331 31.8191C134.984 32.0751 134.582 32.2736 134.121 32.4144C133.659 32.5552 133.128 32.6256 132.526 32.6256ZM138.336 32.376V26.9991V22.448H139.911L139.757 25.9046H140.084C140.199 25.1493 140.379 24.4963 140.622 23.9459C140.865 23.3954 141.185 22.9665 141.582 22.6593C141.992 22.3521 142.498 22.1984 143.1 22.1984C143.228 22.1984 143.375 22.2112 143.541 22.2368C143.708 22.2496 143.9 22.2944 144.118 22.3712L144.021 24.1955C143.83 24.1187 143.637 24.0675 143.446 24.0419C143.253 24.0034 143.067 23.9843 142.888 23.9843C142.389 23.9843 141.953 24.1443 141.582 24.4643C141.223 24.7844 140.922 25.2197 140.68 25.7702C140.436 26.3078 140.238 26.9159 140.084 27.5944V32.376H138.336ZM148.891 32.6256C148.199 32.6256 147.584 32.5488 147.046 32.3951C146.508 32.2543 146.06 32.0495 145.702 31.7807C145.343 31.499 145.067 31.1662 144.876 30.7822C144.683 30.398 144.581 29.9756 144.569 29.5147L146.048 29.1307C146.021 29.5531 146.124 29.9244 146.355 30.2445C146.598 30.5517 146.937 30.7885 147.373 30.955C147.821 31.1214 148.358 31.2046 148.986 31.2046C149.742 31.2046 150.324 31.0766 150.735 30.8206C151.157 30.5645 151.368 30.2124 151.368 29.7644C151.368 29.4059 151.253 29.1307 151.023 28.9386C150.792 28.7338 150.472 28.5737 150.062 28.4586C149.665 28.3306 149.192 28.2153 148.64 28.1129C148.18 28.0105 147.719 27.8953 147.257 27.7673C146.797 27.6392 146.374 27.4728 145.99 27.268C145.618 27.0504 145.318 26.7687 145.087 26.4231C144.856 26.0774 144.741 25.6485 144.741 25.1365C144.741 24.5347 144.901 24.0163 145.221 23.581C145.542 23.1458 145.996 22.8065 146.585 22.5633C147.174 22.32 147.879 22.1984 148.698 22.1984C149.518 22.1984 150.216 22.3264 150.792 22.5824C151.368 22.8257 151.823 23.1713 152.156 23.6194C152.489 24.0675 152.674 24.5924 152.713 25.1941L151.195 25.5781C151.183 25.1556 151.067 24.7972 150.849 24.5027C150.645 24.2083 150.35 23.9907 149.966 23.8499C149.582 23.6962 149.134 23.6194 148.621 23.6194C147.943 23.6194 147.405 23.7474 147.008 24.0034C146.61 24.2596 146.413 24.6116 146.413 25.0597C146.413 25.3925 146.527 25.6613 146.758 25.8661C147.002 26.071 147.328 26.231 147.738 26.3463C148.147 26.4615 148.602 26.5766 149.101 26.6919C149.613 26.7943 150.1 26.9095 150.561 27.0375C151.035 27.1655 151.458 27.332 151.829 27.5368C152.201 27.7416 152.495 28.0169 152.713 28.3625C152.931 28.6954 153.039 29.1243 153.039 29.6491C153.039 30.302 152.867 30.8525 152.521 31.3006C152.174 31.7359 151.689 32.0688 151.061 32.2991C150.446 32.5168 149.723 32.6256 148.891 32.6256Z" fill="#EAEAEA" fill-opacity="0.7"/>
</g>
<defs>
<clipPath id="clip0_1_298">
<rect width="158.421" height="35" fill="white"/>
</clipPath>
</defs>
</svg>
