<svg width="170" height="17" viewBox="0 0 170 17" fill="none" xmlns="http://www.w3.org/2000/svg">
<g clip-path="url(#clip0_1_303)">
<path d="M162.275 16.5557H155.794C154.338 16.5557 153.188 15.3815 153.188 13.949V2.70042C153.188 2.01939 153.446 1.33837 153.939 0.868708C154.432 0.375553 155.09 0.09375 155.794 0.09375H162.275C162.862 0.09375 163.356 0.563422 163.356 1.15051C163.356 1.7376 162.862 2.23075 162.275 2.23075H155.794C155.653 2.20727 155.536 2.27772 155.442 2.37165C155.348 2.4421 155.301 2.58301 155.301 2.70042V7.06836H160.561C161.148 7.06836 161.642 7.53802 161.642 8.12512C161.642 8.71221 161.148 9.18189 160.561 9.18189H155.301V13.949C155.301 14.2074 155.512 14.4422 155.794 14.4422H162.275C162.862 14.4422 163.356 14.9119 163.356 15.4989C163.356 16.086 162.862 16.5557 162.275 16.5557Z" fill="#EAEAEA" fill-opacity="0.7"/>
<path d="M138.098 2.81784C138.098 1.3149 139.319 0.09375 140.821 0.09375H146.786C148.29 0.09375 149.51 1.3149 149.51 2.81784C149.51 3.40493 149.04 3.8746 148.453 3.8746C147.866 3.8746 147.397 3.40493 147.397 2.81784C147.397 2.46558 147.115 2.20727 146.786 2.20727H140.821C140.493 2.20727 140.211 2.46558 140.211 2.81784V13.8081C140.211 14.1369 140.493 14.4187 140.821 14.3953H146.786C147.115 14.4187 147.397 14.1369 147.397 13.8081V10.45H144.696C144.109 10.45 143.64 9.95682 143.64 9.36978C143.64 8.78266 144.109 8.31298 144.696 8.31298L148.453 8.33647C149.04 8.33647 149.51 8.80613 149.51 9.39322V13.8081C149.51 15.3111 148.29 16.5322 146.786 16.5322H140.821C139.319 16.5322 138.098 15.3111 138.098 13.8081V2.81784Z" fill="#EAEAEA" fill-opacity="0.7"/>
<path d="M122.397 8.35917V2.08907C122.397 1.57243 122.585 1.07928 122.961 0.703542C123.383 0.304322 123.924 0.0694868 124.511 0.0694868H130.076C132.401 0.0225204 134.35 1.85424 134.421 4.20258V5.30631C134.421 6.36307 133.999 7.39635 133.247 8.14782C132.425 8.94625 131.321 9.41595 130.147 9.4394L133.999 14.8407C134.35 15.3337 134.233 15.9913 133.763 16.3201C133.27 16.6724 132.613 16.5549 132.284 16.0852L127.681 9.62729C127.634 9.55679 127.611 9.5099 127.587 9.4394H124.511V15.4747C124.511 16.0618 124.041 16.5314 123.454 16.5314C122.867 16.5314 122.397 16.0618 122.397 15.4747V8.35917ZM124.511 2.20649V7.32589H130.076C130.687 7.32589 131.297 7.09106 131.744 6.64487C132.096 6.29262 132.307 5.82295 132.307 5.30631V4.20258C132.237 3.02841 131.227 2.13604 130.076 2.20649H124.511Z" fill="#EAEAEA" fill-opacity="0.7"/>
<path d="M106.031 16.5088C105.49 16.2974 105.233 15.6869 105.444 15.1467L110.986 0.751336C111.15 0.352116 111.526 0.0703125 111.972 0.0703125H112.489C112.959 0.0703125 113.358 0.352116 113.498 0.774819L118.665 15.1702C118.782 15.5225 118.712 15.9216 118.477 16.2269C118.242 16.5088 117.843 16.6497 117.467 16.5792C117.091 16.5088 116.786 16.2505 116.669 15.8982L115.212 11.8825H108.966L107.417 15.9216C107.205 16.4618 106.594 16.7201 106.031 16.5088ZM112.207 3.47542L109.788 9.74555H114.461L112.207 3.47542Z" fill="#EAEAEA" fill-opacity="0.7"/>
<path d="M92.3945 1.08024V7.02157H99.5802V1.05676C99.5802 0.46967 100.05 0 100.637 0C101.224 0 101.694 0.46967 101.694 1.05676V15.4991C101.694 16.0862 101.224 16.5559 100.637 16.5559C100.05 16.5559 99.5802 16.0862 99.5802 15.4991V9.15862H92.3945V15.4991C92.3945 16.0862 91.9248 16.5559 91.337 16.5559C90.75 16.5559 90.2803 16.0862 90.2803 15.4991V1.08024C90.2803 0.493153 90.75 0.0234832 91.337 0.0234832C91.9248 0.0234832 92.3945 0.493153 92.3945 1.08024Z" fill="#EAEAEA" fill-opacity="0.7"/>
<path d="M83.7143 16.5551H77.9139C76.3639 16.5786 75.0724 15.3574 75.0488 13.8076V2.81724C75.0488 2.06577 75.3541 1.36126 75.9177 0.868113C76.4579 0.351475 77.1624 0.0696728 77.9139 0.0931557H83.7143C84.4892 0.0931557 85.2407 0.398442 85.8043 0.962049C86.321 1.4552 86.6027 2.15971 86.5793 2.86421V3.33388C86.5793 3.92097 86.0861 4.39064 85.499 4.39064C84.912 4.36716 84.4422 3.89748 84.4658 3.3104V2.84073C84.4658 2.69982 84.3953 2.53544 84.3014 2.44151C84.1369 2.30061 83.9256 2.20667 83.7143 2.20667H77.9139C77.7025 2.20667 77.5146 2.27712 77.3503 2.41803C77.2328 2.51196 77.1624 2.67635 77.1624 2.81724V13.8076C77.2093 14.1833 77.5381 14.4651 77.9139 14.4416H83.7143C84.0901 14.4651 84.4422 14.1833 84.4658 13.8076V11.8114C84.4658 11.2244 84.9589 10.7547 85.5225 10.7547C86.1096 10.7547 86.6027 11.2244 86.6027 11.8114V13.8076C86.5558 15.3574 85.2642 16.5786 83.7143 16.5551Z" fill="#EAEAEA" fill-opacity="0.7"/>
<path d="M43.9435 0.540004L48.0767 6.45785L52.1863 0.540004C52.3976 0.234718 52.7733 0.0468495 53.1491 0.0703327C53.5248 0.1173 53.8771 0.352136 54.018 0.704388C54.1824 1.03315 54.1589 1.45586 53.9241 1.76115L49.3682 8.31306L53.9241 14.8415C54.1589 15.1702 54.1824 15.5694 54.018 15.9217C53.8771 16.2505 53.5248 16.4853 53.1491 16.5323C52.7733 16.5558 52.3976 16.3679 52.1863 16.0626L48.0767 10.1683L43.9435 16.0626C43.7322 16.3679 43.3565 16.5558 42.9807 16.5323C42.605 16.4853 42.2762 16.2505 42.1118 15.9217C41.9475 15.5694 41.9709 15.1702 42.2058 14.8415L46.7616 8.31306L42.2058 1.76115C41.9709 1.45586 41.9475 1.03315 42.1118 0.704388C42.2762 0.352136 42.605 0.1173 42.9807 0.0938163C43.3565 0.0468495 43.7322 0.234718 43.9435 0.540004Z" fill="#EAEAEA" fill-opacity="0.7"/>
<path d="M37.2483 16.5557H30.7669C29.3109 16.5557 28.1602 15.3815 28.1602 13.949V2.70042C28.1602 2.01939 28.4185 1.33837 28.9116 0.868708C29.4048 0.375553 30.0624 0.09375 30.7669 0.09375H37.2483C37.8354 0.09375 38.3286 0.563422 38.3286 1.15051C38.3286 1.7376 37.8354 2.23075 37.2483 2.23075H30.7669C30.626 2.20727 30.5086 2.27772 30.4146 2.37165C30.3207 2.4421 30.2737 2.58301 30.2737 2.70042V7.06836H35.534C36.1211 7.06836 36.6143 7.53802 36.6143 8.12512C36.6143 8.71221 36.1211 9.18189 35.534 9.18189H30.2737V13.949C30.2737 14.2074 30.485 14.4422 30.7669 14.4422H37.2483C37.8354 14.4422 38.3286 14.9119 38.3286 15.4989C38.3286 16.086 37.8354 16.5557 37.2483 16.5557Z" fill="#EAEAEA" fill-opacity="0.7"/>
<path d="M16.1232 0.0234375C16.7102 0.0234375 17.1799 0.493107 17.1799 1.08019V13.8083C17.1799 13.9727 17.2504 14.137 17.3443 14.2544C17.4851 14.3484 17.6261 14.4189 17.814 14.4189H23.4265C24.0136 14.4189 24.4832 14.8885 24.4832 15.4756C24.4832 16.0627 24.0136 16.5559 23.4265 16.5559H17.7904C16.2875 16.5559 15.0664 15.3347 15.0664 13.8083V1.08019C15.0664 0.493107 15.5361 0.0234375 16.1232 0.0234375Z" fill="#EAEAEA" fill-opacity="0.7"/>
<path d="M2.11352 9.69851V15.5224C2.11352 16.1095 1.64385 16.5792 1.05676 16.5792C0.469671 16.5792 0 16.1095 0 15.5224V2.84133C0 2.08985 0.281802 1.40883 0.79844 0.892191C1.31508 0.375553 2.01958 0.09375 2.74758 0.09375H10.3328C10.9198 0.09375 11.3896 0.563422 11.3896 1.15051C11.3896 1.7376 10.9198 2.20727 10.3328 2.20727H2.74758C2.58319 2.20727 2.4188 2.27772 2.30139 2.39514C2.18396 2.51256 2.11352 2.67694 2.11352 2.84133V7.58499H8.52452C9.11164 7.58499 9.58129 8.05466 9.58129 8.64175C9.58129 9.22886 9.11164 9.69851 8.52452 9.69851H2.11352Z" fill="#EAEAEA" fill-opacity="0.7"/>
<path d="M167.858 0.0406468C167.886 0.0534049 167.909 0.0725419 167.924 0.0980575L168.551 1.16973L169.175 0.110816C169.184 0.0948687 169.196 0.0821105 169.212 0.0725419C169.274 0.00875188 169.367 -0.0135748 169.451 0.0183203C169.535 0.0470259 169.591 0.129953 169.591 0.219259V2.09788C169.591 2.17761 169.529 2.24459 169.451 2.24459C169.373 2.24459 169.312 2.17761 169.312 2.09788V0.439335L168.697 1.48231C168.672 1.52377 168.625 1.54929 168.576 1.54929C168.566 1.54929 168.56 1.54929 168.551 1.54609C168.541 1.54929 168.535 1.54929 168.526 1.54929C168.477 1.54929 168.43 1.52377 168.405 1.48231L167.797 0.439335V2.10107C167.797 2.17761 167.734 2.24459 167.657 2.24459C167.579 2.24459 167.518 2.17761 167.518 2.10107V0.219259C167.518 0.129953 167.573 0.0470259 167.657 0.0183203C167.722 -0.00719563 167.799 0.00237274 167.858 0.0406468Z" fill="#EAEAEA" fill-opacity="0.7"/>
<path d="M165.767 0.287056C165.69 0.287056 165.627 0.223265 165.627 0.143527C165.627 0.06379 165.69 0 165.767 0H167.099C167.176 0 167.238 0.06379 167.238 0.143527C167.238 0.223265 167.176 0.287056 167.099 0.287056H166.574V2.09869C166.574 2.17843 166.509 2.24222 166.431 2.24222C166.357 2.24222 166.292 2.17843 166.292 2.09869V0.287056H165.767Z" fill="#EAEAEA" fill-opacity="0.7"/>
<path d="M70.4192 14.2715H61.0547C60.4501 14.2715 59.96 14.7616 59.96 15.3662C59.96 15.9709 60.4501 16.461 61.0547 16.461H70.4192C71.0238 16.461 71.514 15.9709 71.514 15.3662C71.514 14.7616 71.0238 14.2715 70.4192 14.2715Z" fill="#EAEAEA" fill-opacity="0.7"/>
<path d="M70.4192 0H61.0547C60.4501 0 59.96 0.490143 59.96 1.09476C59.96 1.69939 60.4501 2.18953 61.0547 2.18953H70.4192C71.0238 2.18953 71.514 1.69939 71.514 1.09476C71.514 0.490143 71.0238 0 70.4192 0Z" fill="#EAEAEA" fill-opacity="0.7"/>
<path d="M66.8704 7.13477H57.5059C56.9013 7.13477 56.4111 7.62491 56.4111 8.22953C56.4111 8.83415 56.9013 9.32429 57.5059 9.32429H66.8704C67.475 9.32429 67.9651 8.83415 67.9651 8.22953C67.9651 7.62491 67.475 7.13477 66.8704 7.13477Z" fill="#EAEAEA" fill-opacity="0.7"/>
</g>
<defs>
<clipPath id="clip0_1_303">
<rect width="170" height="17" fill="white"/>
</clipPath>
</defs>
</svg>
