<svg width="135" height="31" viewBox="0 0 135 31" fill="none" xmlns="http://www.w3.org/2000/svg">
<path d="M22.3692 11.2788L21.4722 9.63886C21.3601 9.41003 21.0611 9.37189 20.8742 9.48631C18.3326 11.2026 15.2677 12.2323 11.9786 12.2323C8.7642 12.2323 5.73671 11.2407 3.23249 9.60072C3.04561 9.48631 2.78397 9.52444 2.63447 9.75328C1.88694 10.9356 0.877775 13.0714 0.541387 14.4443C0.0554937 16.3894 -0.0940118 17.915 0.055494 19.3261C0.690893 25.619 5.92359 30.3864 12.1655 30.3864C18.7811 30.3864 24.1259 24.8944 24.1259 18.182C24.1259 16.7708 23.9017 15.3597 23.4531 13.9104C23.1168 12.6518 22.5935 11.6984 22.3692 11.2788ZM12.2028 27.3734C7.41865 27.3734 3.45675 23.7502 2.97086 18.9447C2.85873 17.915 3.00823 16.6945 3.382 15.1308C3.45675 14.8639 3.56888 14.5206 3.71838 14.1011C3.86789 13.7197 4.31641 13.529 4.69017 13.6816C6.97013 14.7113 9.43698 15.2071 11.9786 15.2071C14.5949 15.2071 17.1365 14.6732 19.4912 13.6053C19.865 13.4527 20.3135 13.6053 20.463 13.9867C20.5378 14.2155 20.6499 14.4443 20.7247 14.7113C21.0984 15.8936 21.2853 16.9996 21.2853 18.1057C21.2479 23.2544 17.1739 27.3734 12.2028 27.3734Z" fill="#EAEAEA" fill-opacity="0.7"/>
<path d="M6.44935 8.37878C6.74836 8.53133 7.12213 8.45506 7.38376 8.18808L11.4204 4.06909C11.7942 3.68771 12.4296 3.68771 12.8033 4.06909L16.9148 8.26436C17.139 8.49319 17.5128 8.56947 17.8492 8.45506C18.5593 8.14995 19.2321 7.8067 19.8675 7.38717L20.0544 7.19648L14.1863 1.20869C13.6256 0.636603 12.8407 0.293354 12.0184 0.331493C11.2709 0.369632 10.5234 0.712881 10.0001 1.28496L4.24414 7.15834C4.28152 7.15834 4.31889 7.19648 4.35627 7.19648C5.02905 7.65414 5.7392 8.03553 6.44935 8.37878Z" fill="#EAEAEA" fill-opacity="0.7"/>
<path d="M37.9521 24.3944H48.2307V22.2205C48.2307 21.801 47.8943 21.4577 47.4831 21.4577H41.6524V17.5294H46.6609V14.7072H41.6524V10.8551H47.4831C47.8943 10.8551 48.2307 10.5119 48.2307 10.0924V7.91846H37.9521V24.3944Z" fill="#EAEAEA" fill-opacity="0.7"/>
<path d="M74.0957 24.3944H84.3742V22.2205C84.3742 21.801 84.0378 21.4577 83.6267 21.4577H77.796V17.5294H82.8044V14.7072H77.796V10.8551H83.6267C84.0378 10.8551 84.3742 10.5119 84.3742 10.0924V7.91846H74.0957V24.3944Z" fill="#EAEAEA" fill-opacity="0.7"/>
<path d="M64.5691 16.6569C64.5691 16.9239 64.5691 17.1909 64.6065 17.496C64.6065 17.8011 64.6439 18.1062 64.6812 18.4113L57.0191 8.49523C56.9069 8.38081 56.8322 8.2664 56.7574 8.19012C56.6827 8.11384 56.6079 8.03756 56.4958 7.99943C56.421 7.96129 56.3089 7.92315 56.1968 7.92315C56.0847 7.92315 55.9351 7.88501 55.7856 7.88501H53.8047V24.361H57.0938V15.5509C57.0938 15.3221 57.0938 15.0551 57.0564 14.7881C57.0564 14.5212 57.0191 14.2161 57.0191 13.9491L64.6439 23.7889C64.8307 24.0177 65.0176 24.2084 65.2045 24.2847C65.3914 24.361 65.653 24.4372 65.952 24.4372H67.8956V7.92315H64.6065V16.6569H64.5691Z" fill="#EAEAEA" fill-opacity="0.7"/>
<path d="M103.626 21.3152C104.037 20.8194 104.336 20.3236 104.635 19.7515C104.896 19.1794 105.121 18.5692 105.27 17.9208C105.42 17.2725 105.494 16.6241 105.494 15.8995C105.345 14.412 105.158 13.306 104.896 12.6195C104.485 11.5898 103.925 10.7126 103.214 9.98795C102.467 9.22517 101.607 8.65309 100.598 8.23356C99.5889 7.81404 98.4302 7.58521 97.1968 7.58521C95.9634 7.58521 94.8047 7.81404 93.7582 8.23356C92.7116 8.65309 91.852 9.22517 91.1045 9.98795C90.3569 10.7507 89.7963 11.6279 89.3851 12.6195C88.974 13.6493 88.7871 14.7172 88.7871 15.8995C88.7871 17.0818 88.974 18.1878 89.3851 19.1794C89.7963 20.2091 90.3569 21.0863 91.1045 21.811C91.852 22.5738 92.7116 23.1458 93.7582 23.5654C94.8047 23.9849 95.926 24.2137 97.1968 24.2137C97.5332 24.2137 97.907 24.2137 98.2433 24.1756C98.5797 24.1374 98.9161 24.0993 99.2151 24.023L101.196 26.2732C101.458 26.6165 101.794 26.8072 102.168 26.9216C102.542 27.036 102.915 27.0741 103.364 27.0741H106.429L102.355 22.5738C102.803 22.2305 103.252 21.811 103.626 21.3152ZM101.308 18.1115C101.084 18.7599 100.822 19.2938 100.411 19.7515C100.037 20.2091 99.5515 20.5524 98.9909 20.7812C98.4302 21.0101 97.7948 21.1245 97.0847 21.1245C96.3745 21.1245 95.7391 21.0101 95.1411 20.7812C94.5805 20.5524 94.0946 20.2091 93.7208 19.7515C93.347 19.2938 93.048 18.7599 92.8238 18.1115C92.5995 17.4632 92.5248 16.7385 92.5248 15.9376C92.5248 15.1367 92.6369 14.412 92.8238 13.7637C93.048 13.1153 93.3097 12.5814 93.7208 12.1237C94.0946 11.6661 94.5805 11.3228 95.1411 11.094C95.7017 10.8651 96.3372 10.7507 97.0847 10.7507C97.7948 10.7507 98.4302 10.8651 98.9909 11.094C99.5515 11.3228 100.037 11.6661 100.411 12.1237C100.785 12.5814 101.084 13.1153 101.308 13.7637C101.532 14.412 101.607 15.1367 101.607 15.9376C101.645 16.7385 101.532 17.4632 101.308 18.1115Z" fill="#EAEAEA" fill-opacity="0.7"/>
<path d="M120.706 8.64779V17.5723C120.706 18.1443 120.631 18.6783 120.481 19.0978C120.332 19.5555 120.108 19.9369 119.846 20.242C119.584 20.5471 119.21 20.8141 118.837 20.9666C118.426 21.1192 117.977 21.2336 117.454 21.2336C116.931 21.2336 116.482 21.1573 116.071 20.9666C115.66 20.8141 115.323 20.5471 115.062 20.242C114.8 19.9369 114.576 19.5555 114.426 19.0978C114.277 18.6402 114.202 18.1443 114.202 17.5723V8.64779C114.202 8.22826 113.866 7.88501 113.455 7.88501H110.39V17.5341C110.39 18.5257 110.539 19.4411 110.876 20.2801C111.212 21.1192 111.66 21.8438 112.258 22.454C112.856 23.0643 113.604 23.5219 114.464 23.8652C115.323 24.2084 116.333 24.361 117.416 24.361C118.5 24.361 119.472 24.2084 120.369 23.8652C121.229 23.5219 121.976 23.0643 122.574 22.454C123.172 21.8438 123.658 21.1192 123.995 20.2801C124.331 19.4411 124.481 18.5257 124.481 17.5341V7.92315H121.416C121.042 7.92315 120.706 8.2664 120.706 8.64779Z" fill="#EAEAEA" fill-opacity="0.7"/>
<path d="M134.571 7.91846H130.759V24.3944H134.571V7.91846Z" fill="#EAEAEA" fill-opacity="0.7"/>
</svg>
