<svg width="139" height="14" viewBox="0 0 139 14" fill="none" xmlns="http://www.w3.org/2000/svg">
<path d="M94.2487 2.67748V6.31932H108.3V8.13904H94.2487V11.326H108.767V13.6006H90.9697V0.402832L108.767 0.407622V2.67748H94.2487Z" fill="#EAEAEA"/>
<path d="M79.4951 0.407622L71.4446 13.6006H67.6539L59.6035 0.402832H62.918L69.5588 11.1799L76.1806 0.402832L79.4951 0.407622Z" fill="#EAEAEA"/>
<path d="M33.6032 2.67748V6.31932H47.6523V8.13904H33.6032V11.326H48.1215V13.6006H30.3242V0.402832L48.1215 0.407622V2.67748H33.6032Z" fill="#EAEAEA"/>
<path d="M3.27895 2.67748V6.31932H17.3281V8.13904H3.27895V13.6006H0V0.402832L17.7972 0.407622V2.67748H3.27895Z" fill="#EAEAEA"/>
<path d="M137.215 9.3012L136.016 8.70021L137.232 8.13035C137.784 7.86937 138.087 7.62275 138.279 7.27077C138.511 6.84697 138.62 6.20767 138.62 5.2595C138.62 3.88992 138.566 3.03752 138.435 2.4102C138.307 1.78527 138.106 1.38541 137.784 1.11724C137.45 0.83949 136.931 0.659913 136.154 0.549772C135.403 0.442026 134.42 0.398926 132.761 0.398926H119.773V13.5991H123.043V10.1368H135.438V13.5991H138.615V12.6701C138.599 11.3508 138.49 10.563 138.265 10.1129C138.082 9.74895 137.824 9.60768 137.213 9.29881L137.215 9.3012ZM135.422 7.68021H123.045V2.67119H135.422V7.68021Z" fill="#EAEAEA"/>
</svg>
