<svg width="139" height="14" viewBox="0 0 139 14" fill="none" xmlns="http://www.w3.org/2000/svg">
<path d="M94.2487 2.67772V6.31956H108.3V8.13928H94.2487V11.3262H108.767V13.6008H90.9697V0.403069L108.767 0.407858V2.67772H94.2487Z" fill="#151515"/>
<path d="M79.4951 0.407858L71.4446 13.6008H67.6539L59.6035 0.403069H62.918L69.5588 11.1801L76.1806 0.403069L79.4951 0.407858Z" fill="#151515"/>
<path d="M33.6032 2.67772V6.31956H47.6523V8.13928H33.6032V11.3262H48.1215V13.6008H30.3242V0.403069L48.1215 0.407858V2.67772H33.6032Z" fill="#151515"/>
<path d="M3.27895 2.67756V6.31939H17.3281V8.13912H3.27895V13.6007H0V0.402905L17.7972 0.407694V2.67756H3.27895Z" fill="#151515"/>
<path d="M137.215 9.30144L136.016 8.70045L137.232 8.13059C137.784 7.8696 138.087 7.62298 138.279 7.27101C138.511 6.84721 138.62 6.20791 138.62 5.25974C138.62 3.89016 138.566 3.03776 138.435 2.41044C138.307 1.78551 138.106 1.38564 137.784 1.11747C137.45 0.839727 136.931 0.66015 136.154 0.550009C135.403 0.442262 134.42 0.399162 132.761 0.399162H119.773V13.5993H123.043V10.1371H135.438V13.5993H138.615V12.6703C138.599 11.351 138.49 10.5633 138.265 10.1131C138.082 9.74918 137.824 9.60792 137.213 9.29904L137.215 9.30144ZM135.422 7.68045H123.045V2.67142H135.422V7.68045Z" fill="#151515"/>
</svg>
